<?xml version="1.0" encoding="UTF-8"?>
<svg id="Capa_2" data-name="Capa 2" xmlns="http://www.w3.org/2000/svg" viewBox="0 0 523.68 520.67">
  <defs>
    <style>
      .cls-1 {
        fill: #e42320;
      }

      .cls-2 {
        fill: #070808;
      }
    </style>
  </defs>
  <g id="Capa_1-2" data-name="Capa 1">
    <g>
      <path class="cls-2" d="m410.02,183.56c-2.85.91-5.69,1.83-8.05,2.59-1.77-1.82-3.38-3.76-5.28-5.36-3.68-3.11-7.51-6.03-11.3-9.01-.93-.73-1.85-1.65-2.93-1.96-3.17-.92-4.39-3.09-4.98-6.13-.24-1.22-1.2-2.77-2.26-3.28-5.97-2.86-12.13-5.3-18.09-8.18-2.67-1.29-5.01-3.27-7.5-4.93-5.03-3.36-10.1-6.65-15.05-10.12-1.16-.81-1.89-2.24-3.32-3.99-6.72.54-12.56-4.94-19.61-6.8-5.65-1.49-11.25-3.17-16.86-4.8-1.01-.29-1.98-.74-3.51-1.33-.15,2.79-.41,5.4-.33,8,.02.6,1.11,1.53,1.85,1.7,15.4,3.51,29.91,9.29,42.86,18.31,8.1,5.64,15.73,12.07,22.95,18.82,5.31,4.97,9.61,11.03,14.36,16.61-.2.25-.39.5-.59.75-1.59-.53-3.19-1.05-5.3-1.75,1.21,2.33,2.19,4.23,3.24,6.28-.08,0,.24.09.29,0,.87-1.32,1.87-3.55,3.52-2.19,1.63,1.34,2.62,3.73,3.31,5.85.45,1.38-.15,3.09-.3,4.94,3.39-1.11,4.69,1.01,5.8,3.61,1.09,2.57-.27,4.29-1.37,6.46-1.38,2.71-2.88,2.49-5.26,1.9-4.03-1-8.29-1.5-9.55-6.39-.24-.93.01-2.53.66-3.04,2.9-2.28,3.04-2.92.33-5.54-.7-.68-1.45-1.3-2.56-2.3-.36,1.32-.62,2.46-1,3.57-.17.49-.56.91-.85,1.35-.45-.33-1.03-.56-1.33-.99-3.14-4.4-6.28-8.8-9.32-13.28-1.15-1.69-1.92-3.63-3.03-5.34-.91-1.4-2.06-2.63-3.73-3.6.03.54.06,1.08.13,2.37-.68-.89-.87-1.27-1.17-1.52-4.97-4.1-9.73-8.51-14.99-12.19-12.35-8.64-26.06-14.47-40.68-18.06-12.88-3.16-26.07-3.06-39.15-2.33-12.7.72-24.93,4.37-36.42,9.64-22.94,10.5-41.06,26.68-54.04,48.44-.26.43-.47,1.23-.75,1.24-4.25.28-6.85,3.53-10.16,5.5-.37.22-.95.07-2.29.13,6.6,5,5.33,10.42,2.57,16.45-1.72,3.75-2.12,8.1-3.21,12.15-.2.73-.79,1.69-1.42,1.91-1.74.61-3.61.84-5.41,1.29-1.93.48-2.24,1.8-.82,3.32,1.21,1.3,2.51,2.53,3.65,3.89,2.17,2.59,2.34,7.08.56,9.99-1.55-1.81-3.14-3.67-4.73-5.53-.26.19-.52.38-.78.56,1.31,2.49,2.66,4.97,3.93,7.48,1.15,2.28,2.48,4.28-.29,6.82-1.5,1.38-1.66,4.25-2.37,6.46-.29.92-.48,1.88-.65,2.84-.6,3.37-1.17,6.75-1.79,10.38-.86.06-2.1.15-2.75.2-.93-2.43-1.93-4.63-2.61-6.91-1.22-4.08-2.25-8.22-3.5-12.85-1.99-.25-4.8-.6-8.33-1.04.54,5.72.85,11.2,1.6,16.62,1.37,9.88,3.9,19.48,7.29,28.87,3.4,9.44,7.71,18.42,13.12,26.86,2.37,3.7,2.39,3.74-1.02,6.42-1.51,1.19-2.68,2.4-1.54,5.03,2.23-1.83,4.31-3.55,6.39-5.26,2.97,3.55,2.95,4.35-.14,7.9.86,0,1.85.29,2.54-.05,2.33-1.14,3.83-.53,5.09,1.65.69,1.19,1.78,2.15,2.5,2.99-1.06,1.84-2.02,3.49-3.21,5.54-2.06.5-2.57-1.13-3.03-3.15-.19-.83-1.16-1.49-1.77-2.23-.06-.35-.11-.7-.17-1.06-.26.07-.52.15-.78.22.36.26.71.53,1.07.79-.35,1.43-.7,2.86-1.23,5.01-1.04-.55-2.33-1.22-3.61-1.89.02-.33.04-.65.06-.98-.67.58-1.36,1.14-2.01,1.73-1.54,1.41-2.93,3.03-4.64,4.18-.86.58-2.29.27-3.45.45-.9.14-1.79.41-2.57,1.06,3.63,1.14,6.72.26,9.43-2.12.46-.41,1.11-.81,1.69-.83,2.3-.08,4.62-.12,6.91.04,3.76.26,4.83,2.5,3.48,5.91-1.1,2.76-1.58,5.76-2.48,9.21-.95-.59-2.19-1.37-3.16-1.98-1.95.18-4.04.88-5.82.41-1.72-.45-3.13-2.1-4.94-2.81,1.6,3.81,5,4.42,8.68,5.06-.56,1.62-.91,3.32-1.77,4.71-.31.5-1.95.56-2.8.27-2.38-.81-4.66-1.9-6.98-2.87l-.58.99c1.21,1.59,2.42,3.18,3.81,5-5.27,1.97-5.72,1.87-8.84-1.85-3.28-3.91-6.53-7.84-9.8-11.76.03-.18.02-.4.11-.54,3.75-6.06,3-7.6-3.95-8.05-.68-.04-1.37-.13-2.58-.26.58-1.76,1.27-3.24,1.52-4.8.25-1.55.05-3.17.05-5.01.91-.05,1.76-.1,2.65-.15,1.59,2.68-1.8,6.48,1.68,8.35,1.72.92,4.07.67,6.23.37-1.67-.75-3.34-1.51-5.25-2.37v-5.69c2.95.47,6.26.4,8.98,1.62,2.32,1.04,3.4.77,4.7-1.03,1.42-1.95.91-3.47-.86-4.87-1.63,3.55-7.01,4.26-9.61,1.35-2.34-2.62-5.89-2.75-8.66-.35-.44.38-1.03.58-1.55.87-1.52.85-3.64,1.33-2.01,3.91.22.35-.54,1.31-1.11,2.55-2.56-4.4-5.07-8.31-7.17-12.42-2.34-4.6-4.5-9.31-6.41-14.1-2.45-6.15-4.88-12.34-6.76-18.68-1.91-6.44-3.36-13.03-4.6-19.64-1.04-5.53-1.64-11.15-2.15-16.76-.43-4.74-.4-9.53-.7-14.29-.04-.71-.67-1.86-1.22-1.98-2.66-.59-5.37-.97-8.08-1.29-5.46-.64-10.93-1.23-16.41-1.78-4.59-.46-9.2-.78-13.79-1.26-5.46-.56-10.91-1.18-16.36-1.86-5.92-.74-11.83-1.48-17.72-2.43-1.66-.27-3.19-1.26-4.79-1.93l.27-1.24c3.83-.12,7.67-.08,11.48-.4,5.14-.44,10.61-.12,14.91-3.57,3.25-2.61,6.11-5.73,9.02-8.75,4.72-4.9,9.11-10.22,15.97-12.3,1.35-.41,2.79-.56,4.42-.88,0,2.06-.05,3.43-2.3,3.27-1.34-.1-2.69-.02-3.59-.02,1.19,1.7,2.32,3.44,3.62,5.05.19.23,1.46.01,1.77-.37,1.33-1.68,2.77-3.37,3.67-5.29,1.84-3.92,5.07-4.8,8.92-4.79,4.71.02,9.41,0,14.1,0,1.57-5.32,3.07-10.54,4.66-15.73.2-.64.77-1.52,1.28-1.61.6-.11,1.66.36,1.95.89,1.27,2.29,2.26,4.6,5.29,1.73.53-.5,2.06.23,2.91-.14,3.65-1.58,4.83-5.02,3.87-11.34-1.8.92-3.48,1.79-5.15,2.65-3.55-3.69-.26-6.91,1.06-10.04.82-1.94,1.18-3.36-.47-4.64-2.44-1.89-.32-3.25.48-4.69.09-.15,1.73.36,2.46.85.43.29.49,1.15.76,1.87,1.35-1.88,2.29-3.5.52-5.4-2.37-2.55-.01-4.58,1-6.62.84-1.7,2.04-3.24,3.22-4.73.75-.95,1.76-1.69,2.71-2.57.31-1.1.36-2.84,1.2-4.03,7.92-11.26,16.59-21.91,26.81-31.18,10.21-9.26,21.03-17.75,33.18-24.35,6.97-3.79,14.08-7.35,21.26-10.73,4.04-1.91,8.33-3.31,12.57-4.76.72-.25,2.26.11,2.53.65.75,1.46,1.5,2.26,2.86.96.8-.76,1.2-1.93,1.78-2.92-.25-.2-.5-.39-.75-.59,3.21-.83,6.39-1.8,9.65-2.41.84-.16,2.09.6,2.8,1.29,2.13,2.07,4.16,4.24,6.07,6.52,1.38,1.64,2.99,1.33,4.07.26,3.05-3.02,6.16-6.08,8.58-9.59,1.28-1.85,2.63-2.6,4.5-2.81,3.23-.36,6.48-.51,9.64-.74.73-5.85,1.45-11.67,2.19-17.49.39-3.1.76-6.2,1.24-9.29.35-2.22,1.39-2.58,3.24-1.21.46.34.88.74,1.32,1.12.28-.11.57-.22.85-.33-.43-1.3-.64-2.74-1.35-3.86-1.01-1.59-.4-2.49.78-3.46,1.26-1.04,2.36-2.34,3.74-3.17,1.78-1.07,3.78-1.79,6.29-2.93-1.12-1.31-2.11-2.46-3.1-3.61-.26.19-.51.38-.77.58.37.61.74,1.22,1.09,1.81-3.01,2.14-5.97,4.25-8.95,6.37-1.96-4.08-1.5-6.3,1.44-7.39-1.89-.84-2.54-3.15-1.1-5.7,1.32-2.33,3.25-4.34.8-7.06-.09-.1.91-1.16,1.45-1.85-1.1-6.77.92-13.13,3.3-19.42.32-.02.65-.03.97-.05.26,1.12.73,2.24.75,3.37.09,4.01.1,8.02.02,12.03-.14,6.55,2.34,11.91,6.81,16.63,4.58,4.83,9.13,9.73,13.21,14.98,3.94,5.06,4.89,11.34,5.22,17.58.27,5.09.06,10.21.06,15.53,3.19.53,6.31.83,9.31,1.59,4.48,1.14,8.9,2.5,13.3,3.94,12.15,3.97,23.91,8.84,35.03,15.19,13.14,7.5,25.23,16.44,36.26,26.79.72.68,1.34,1.47,1.96,2.24.75.94,2.22,2.24,1.99,2.82-.47,1.18-1.89,1.97-3.05,3.05.74,1.29,1.62,3.13,2.82,4.75.45.6,1.63.65,2.88.6-2.75-2.38-1.86-4.58-.18-7.23,4.81,5.62,9.49,11.1,13.19,15.43-.64,1.39-1.07,2.31-1.49,3.23.96.33,1.93.62,2.86,1,.83.34,1.98.56,2.39,1.21,5.45,8.62,10.79,17.3,16.6,26.67-2.71-.45-4.35-.72-6.05-1-.96-1.65-1.25-4.81-4.3-1.44-.74.82-3.16.12-4.77.12-1.23,1.45-2.55,3-3.87,4.55l.08-.07Zm-159.84-90.48c.81.92,1.62,1.83,2.67,3.01v-3.22c-.87-.1-1.54-.18-2.22-.26l-4.99-6.56c-.16.13-.32.25-.48.38,1.68,2.22,3.35,4.44,5.03,6.65Zm-47.92,48.2c-.04-.28-.07-.56-.11-.85,2.34-.99,4.7-1.93,7.02-2.98,11.64-5.24,23.77-8.74,36.5-9.85,2.95-.26,3.14-3.4,5.45-4.06.04-.01-.01-.78-.12-.81-2.65-.69-1.18-3.09-2.18-5.34-8.54,1.77-17.3,3.11-25.76,5.49-7.52,2.12-14.7,5.45-22.07,8.14-1.23.45-3.24,1-3.89.41-3.46-3.18-9.4-1.92-11.36-6.44-1.3.96-2.44,1.8-3.94,2.9.79,2.65,3.79,4.81,3.26,8.73-.57,4.25-3.38,5.65-6.37,7.47-3.05-4.3-1.8-7.87,1.45-10.82-.95-1.66-1.74-3.04-2.31-4.03-.41,1.79-.57,3.95-1.41,5.81-1.31,2.89-1.4,5.56-.18,8.47.32.76.05,2.28-.53,2.82-2.09,1.95-4.43,3.62-6.91,5.58-.55-1.48-.97-2.66-1.43-3.83-1.33-3.4-12.5-7.82-16.1-6.59-.41.14-.84.55-1.03.95-1.13,2.32.08,9.11,2,10.73.49.42,1.41.33,2.12.48-.07-.76.12-2.02-.24-2.22-3.22-1.68-2.23-4.44-2.12-7.29,2.46.6,4.8,1.01,7,1.81.56.21.9,1.67.92,2.57.06,2.03-.15,4.07-.24,6.11.38.01.76.02,1.13.03v-7.99c1.29.34,2.27.34,2.91.81,1.16.85,2.6,1.8,3.05,3.03.54,1.45.39,3.04-1.21,4.49-12.58,11.42-22.91,24.62-30.58,39.82-1.25,2.48-2.89,2.25-4.85,1.59-1.07-.36-2.06-.95-3.08-1.44-.29.11-.57.23-.86.34,3.67,2.84,3.3,5.88.41,9.11,1.65.16,2.55.24,3.3.32-2.12,6.19-4.16,12.15-6.27,18.33,1.97.31,3.41.62,4.87.73,1.47.11,2.95.02,4.23.02,9.15-28.69,24.86-52.44,49.42-70.95v5.2c1.01-.96,1.35-2.03,1.62-3.11.32-1.3.18-3.36.95-3.79,5.89-3.24,10.37-9.59,18.25-8.57.59.08,1.25.17,1.8,0,1.85-.57,3.47-1.47,4.59-3.67-2.74.89-4.91,1.6-7.08,2.31Zm-84.71,66.32v-23.27c-.35-.26-.71-.53-1.06-.79.03,3.87-2.26,4.18-4.46,3.54-1.24-.36-2.12-1.94-3.11-2.92-1.12.32-2.67.76-4.46,1.26-.57,4.86,8.62,20.88,13.08,22.17Zm147.63-81.17c5.37.42,10.74.88,16.13,1.2.55.03,1.52-.6,1.67-1.11,1.23-4.17-1.91-8.36-6.26-8.5-1.09-.04-2.19-.04-3.29-.03-5.39.03-7.9,2.51-8.24,8.44Zm-33.66-29.03c1.52,0,2.88-.1,4.21.03.94.1,2.24.22,2.71.84,1.54,2.03,3.56,1.88,5.57,1.54,2.05-.35,4.04-1.05,5.72-1.5-2.78-2.63-5.82-5.49-9.64-9.1.23,6.98-5.46,5.8-8.57,8.19Zm-114.39,141.53c2.45-1.27,3.66-5.16,2.65-8.2-1.29-3.87-3.75-5.75-6.54-5.34-.83,3.2-1.61,6.2-2.41,9.31,2.1-.26,3.62-.45,5.09-.63.46,1.88.83,3.36,1.2,4.87ZM245.95,104.05c2.77,5.83,6.21,7.05,11.24,4.29.71-.39,1.19-1.19,1.77-1.8-.88-.4-1.73-1-2.66-1.15-3.4-.57-7.15,1.94-10.35-1.33Zm-28.6-8.75c-1.9,4.76,1.15,7.17,2.82,9.66,1.39-1.52,2.67-2.93,4.07-4.46-2.08-1.57-4.41-3.32-6.89-5.19Zm49.56-28.53c-1,1.41-1.83,2.61-2.67,3.8.3.27.6.53.91.8,1.74-1.81,4-3.37,5.07-5.51.83-1.67-1.77-4.23-4.48-5.22.68,1.08,1.37,2.17,2.06,3.26-.19.21-.38.42-.56.63-1.28-.25-2.56-.49-3.84-.74-.12.21-.25.41-.37.62,1.24.75,2.47,1.5,3.89,2.37Zm-194.27,190.69c3.49-2.66,4.27-4.46,3.1-6.85q-4.88,3.03-3.1,6.85Zm69.71-101.48c.27.04.55.08.82.12.6-2.52,1.19-5.05,1.89-8.01-2.14.26-4.11.5-6.45.79,3.68,1.26,3.84,4.11,3.74,7.1Zm-13.18,3.27c-.98-.37-1.74-.66-3.13-1.19-.27,4.11-.51,7.78-.76,11.45.4.05.8.1,1.2.14-1.9-4.12,1.36-6.78,2.69-10.4Zm-51.97,65.81c2.3,1.57,4.12,2.8,5.93,4.04.16-.24.32-.49.48-.73-1.21-2.91-3.44-4.28-6.41-3.31Zm311.93-85.98c-1.26-2.93-4.01-1.64-6.42-2.72,1.15,1.82,1.91,3.03,2.62,4.16.97-.37,2.22-.84,3.79-1.43Z"/>
      <path class="cls-2" d="m311.34,370.41c1.14-.66,2.27-1.35,3.46-1.91.12-.06.81.69.95,1.15.47,1.47.81,2.97,1.2,4.47.39-.03.79-.06,1.18-.09.16-1.14.61-2.33.41-3.41-.63-3.41,1.02-5.27,3.79-6.81,5.63-3.15,11.07-6.54,15.65-11.23,3.5-3.58,7.54-6.63,11.13-10.13,1.52-1.48,2.66-2.41,4.48-.29,1.81-2.78-.06-6.93,3.88-8.66,2.85,4.39,3.31,10.37,8.3,13.82-27.91,32.45-63.68,48.44-106.78,48.66-.23,1.61-.46,2.95-.61,4.3-.16,1.34-.24,2.68-.38,4.21,10.2.13,20.41-.37,30.61-2.28,10.05-1.88,19.82-4.62,29.08-8.77,8.98-4.02,17.54-8.97,26.69-13.73.94-2.9,2.58-3.62,5.58-1.56-1.61-4.64,2.55-5.53,4.69-7.37,8.4-7.23,15.94-15.23,22.7-23.99.18-.23.39-.43-.18.21,1.14.63,2.33,1.17,3.39,1.91,1.75,1.22,1.68,5.06.04,6.53-1.72,1.54-4.82,2.61-2.21,5.94.16.2-1.46,2.33-2.59,2.93-4.38,2.33-8.11,5.05-8.64,10.71h-5.57v4.43h6.65c.35,1.62.71,3.29,1.06,4.91-1.34,1.2-2.84,2.54-4.82,4.32,0,3.33,3.71,3.75,5.9,5.09v4.01c2.02-.29,3.74,2.95,6.21-.01,1.69-2.02,3.36-3.79,4.58-6.24.78-1.56,3.36-2.67,5.31-3.03,1.44-.26,3.23,1.16,4.45-.74.82-1.27,1.44-2.67,2.42-4.54.54.4,1.75.85,1.86,1.48.21,1.24.29,2.99-.41,3.82-4.2,4.91-9.01,9.1-14.65,12.4-4.73,2.77-9.94,5.32-13.58,9.23-6.74,7.25-14.89,11.99-23.53,16.26-10.3,5.09-20.97,9.34-32.06,12.2-8.73,2.25-17.72,3.62-26.66,4.95-5.66.84-11.43.89-17.16,1.28-3.06.21-6.12.5-9.19.56-1.61.03-3.22-.35-4.79-.54-1.3,9.27-2.65,18.29-3.8,27.34-.94,7.35-1.5,14.76-2.48,22.1-1.04,7.86-2.3,15.7-3.67,23.51-.18,1.06-1.53,1.91-2.35,2.86-1.1-.99-2.84-1.81-3.19-3.01-.87-3.08-1.59-6.34-1.51-9.51.21-9.09-4.13-15.59-10.71-21.24-4.75-4.08-10.51-7.48-12.79-13.69-1.71-4.66-2.8-9.62-3.53-14.54-.97-6.51-1.22-13.12-2.06-19.65-.15-1.17-1.48-2.66-2.62-3.15-8.3-3.59-16.69-6.96-25.05-10.41-.95-.39-1.87-.86-3.32-1.53,1.79-1.47,3.26-2.67,4.72-3.87-.12-.25-.24-.51-.36-.76-1.38.42-2.76.85-4.33,1.33-.43-3.97,3.51-2.78,5.21-4.37-.95-.31-1.8-.58-2.65-.88-.6-.21-1.18-.47-1.77-.71.01.49.12,1,0,1.46-.11.46-6.31,3.01-6.74,2.79-.71-.35-2.02-.95-1.96-1.18.24-1.02.88-1.94,1.41-2.97-.17-.8-1.05-2.5-.55-3.19.72-.98,2.45-1.22,3.63-1.72-1.76-2.38-3.65-4.57-5.05-7.05-.46-.81.39-2.35.67-3.69,2.15,1.33,3.74,2.32,5.33,3.3l.65-.96c-2.48-1.86-5.06-3.6-7.42-5.6-3.43-2.92-7.12-4.63-11.78-4.17-.76.08-1.7-1.62-2.56-2.5.79-.72,1.59-1.45,2.5-2.28-.8-.71-1.96-1.73-2.8-2.46.31-1.47.71-2.57.75-3.67.09-3.01-.08-6.02.09-9.02.06-1.12.96-2.18,1.12-3.32.19-1.39-.03-2.83,0-4.25.03-1.49-.44-3.56.34-4.34,1.57-1.56,3.26-.02,4.61,1.11,7.28,6.1,14.54,12.22,21.75,18.4.55.47.59,1.53.68,1.77,1.65.54,3.08.8,4.3,1.45,6.75,3.64,13.45,7.38,20.61,11.33.09-2.03.14-3.11.21-4.53,2.88,0,5.77-.18,8.62.09,1.12.1,2.14,1.2,3.22,1.82,1.25.71,2.51,1.39,3.99,1.67-2.89-1.76-3.91-6.59-8.59-5.18.22-3.31.42-6.39.6-9.15-3.58-.88-6.78-1.64-9.96-2.47-2.52-.66-2.81-1.52-1.37-3.64.38-.56.72-1.15.99-1.77.1-.23-.06-.57-.04-.44-1.31-.56-2.8-.73-3.29-1.53-.64-1.01-.48-2.52-.66-3.82,1.13.04,2.48-.31,3.36.18,11.35,6.36,23.39,11.17,36.16,13.21,9.95,1.59,20.18,1.41,30.3,1.94,1.11.06,2.25-.34,3.25-.51.26.91.48,1.65.69,2.39.83-.25,1.68-.48,2.5-.76.96-.33,1.98-1.12,2.86-.97,5.54.93,9.83-2.45,14.63-4.03,5.58-1.84,11.15-3.73,16.72-5.6.25,1.64,1.22,3.67.59,4.85-1.57,2.95.7,3.46,2.33,4.61-.25-3.26-.81-6.44-1.43-9.61-.03-.14-.53-.2-.81-.29Zm-151.9,5.27c2.46,5.74,5.5,10.26,10.45,13.09,2.96,1.69,6.32,2.69,9.25,4.43,2.22,1.32,3.47.88,4.7-1.06-4.39-3.58-3.59-6.85-2.16-10.49-8.21-.1-8.27-.14-8.98-5.97h-13.25Zm60.61,10.1c2.51-.73,4.87-1.41,7.27-2.11.34,1.56.54,2.45.91,4.16,2.28-3.54.38-6.29.53-9.09-1.95.72-3.66,1.81-5.44,1.92-3.62.22-3.96,2.16-3.27,5.11Z"/>
      <path class="cls-1" d="m196.96,191.27c-1.53,1.01-3.07,2.02-4.64,3.06,1.95.35,3.61.44,4.82-1.92.53-1.04,2.21-2.11,3.38-2.12,13.74-.18,27.48-.19,41.22-.14,1.03,0,2.26.62,3.05,1.33,5.62,5.09,11.2,10.22,16.64,15.49.95.92,1.7,2.54,1.72,3.85.15,9.53.05,19.06.11,28.59.01,1.74-.56,2.4-2.32,2.72-9.14,1.66-18.26,3.48-27.38,5.26-2.21.43-4.42.92-6.96,1.45v-27.67c-2.01-2.52-3.93-.86-5.78-.82-3.6.07-7.2.02-11.19.02,0,2-.04,3.86.01,5.73.05,1.74-.23,3.02-1.72,4.43-2.12,2.01.6,2.12,1.97,2.56v68.56h16.47c.04-1,.13-2.05.13-3.1.01-7.32.24-14.65-.09-21.96-.14-3.16,1.51-3.97,3.79-4.51,8.47-1.99,16.97-3.89,25.45-5.82,2.41-.55,4.82-1.08,7.36-1.65.1.78.22,1.26.22,1.75,0,15.05.04,30.09-.06,45.14,0,1.11-.71,2.48-1.52,3.29-5.12,5.11-10.29,10.18-15.64,15.05-1.2,1.09-3.13,1.91-4.74,1.93-16.75.14-33.5.12-50.25,0-1.35,0-2.95-.81-3.99-1.74-4.15-3.73-8.2-7.57-12.12-11.55-.93-.95-1.68-2.56-1.68-3.87-.09-35.51-.05-71.02-.1-106.53,0-2.08.63-3.55,2.15-4.97,4.14-3.89,8.1-7.97,12.2-11.91.53-.51,1.4-.86,2.13-.9,2.28-.11,4.56-.04,6.84-.04.17.34.34.69.51,1.03Zm42.49,28.46c2.08-3.15.48-7.75-3.33-8.38-.64,2.09-1.27,4.16-1.74,5.69,1.84.98,3.32,1.76,5.07,2.69Zm-32.91-5.29c3.82,3.27,5.82-1.16,9.57-1.01-1.75-1.34-2.76-2.12-4.16-3.19.59,3.72.21,3.99-5.41,4.21Z"/>
      <path class="cls-1" d="m289.05,219.87h-22.09v-29.53h82.72v29.39h-22.17c-.06,1.39-.15,2.37-.15,3.35-.08,29.88-.15,59.75-.21,89.63,0,2.9.23,5.81.15,8.7-.03,1.01-.65,2.01-.59,2.91.04,2.18.74,4.68-.12,6.4-.49.98-3.54.88-5.43.81-.49-.02-1.38-1.78-1.3-2.67,1.06-11.9,2.31-23.79,3.38-35.69.28-3.08.14-6.21.08-9.31-.01-.56-.58-1.11-1-1.86-.62,1.06-1.06,1.81-1.88,3.21-.5-6.74,2.72-12.71.19-19.04-2.42,1.88-.54,6.65-4.95,6.11,0,3.45-1.11,7.33.24,9.94,2.58,4.99,1.27,9.66.81,14.51-.09.97-.65,1.89-1.18,3.35-.63-1.35-.95-2.04-1.27-2.74,3.6-2.21,1.3-5.43,1.35-8.27-.55,1.56-1.1,3.12-1.72,4.9-.63-.33-1.18-.62-2.36-1.24.84,2.84,1.61,5.06,2.12,7.33.26,1.14.04,2.39.05,3.58,0,.66-.2,1.45.09,1.95,2.81,4.74,1.88,9.72,1.21,14.75-.31,2.36.03,4.8,0,7.21-.03,2.46-.66,4.02-3.81,3.88-6.21-.28-12.43-.08-18.65-.08-1.07,0-2.14,0-3.52,0v-111.46Zm24.07,44.76c-.75,4.24-1.42,8.03-2.09,11.81.48.1.96.2,1.45.3.22-1.22.48-2.44.65-3.67.18-1.38-.25-3.44.5-4.02,2.23-1.71.85-2.75-.5-4.43Zm4.49-55.92c1.47,2.53,2.81,4.84,4.45,7.66.29-5.26-1.85-8.63-4.45-7.66Z"/>
      <path class="cls-2" d="m392.02,238.4c2.16.96,3.91,1.89,3.77,4.88-.09,1.82,1.62,2.84,3.95,3.01,7.67.55,15.31,1.58,22.98,2.27,4.25.38,8.54.39,12.81.69,5.64.39,11.29.85,16.92,1.37,2.14.2,4.25.8,6.39.97,5.92.47,11.84.81,18.61,1.26-1.04,1.28-1.67,2.21-2.46,2.97-.67.65-1.54,1.09-2.32,1.63.9,1.02,1.79,2.03,2.6,2.95,1.14-2.6,1.96-4.59,2.9-6.51.14-.29,1.02-.58,1.27-.41,3.57,2.3,7.35-.3,10.97.53.94.21,1.97.03,2.96.03.29,1.36.54,2.47.75,3.43-1.86,3.9-8.04,1.71-9.31,7.13-1.54-1.25-2.94-2.39-3.95-3.21-1.73.97-3.07,1.72-4.72,2.65.72.34,1.28.85,1.77.79,4.4-.51,6.05,2.34,7.35,5.77.32.85,1.01,1.55,1.39,2.12,5.54-1.75,8.89-7.57,15.26-6.52-5.07,1.98-8.08,6.2-11.33,10.15-2.47,3-4.97,5.97-7.41,8.99-4.12,5.11-10.12,6.64-16.02,7.63-8.91,1.5-17.99,1.97-26.94,3.25-15.69,2.24-31.48,2.05-47.25,2.38-4.06.08-8.12.43-12.18.5-4.8.09-4.94-.4-3.91-4.9,1.44-6.31,2.82-12.66,3.61-19.07.81-6.57,1.41-13.26,1.11-19.86-.3-6.58-1.55-13.15-2.91-19.62-1.18-5.59-3-11.05-4.75-16.51-.93-2.89-2.28-5.65-3.55-8.7,1.04-1.32,2.31-1.38,3.5.01,1.28,1.5,2.63,3.01,3.53,4.74,1.1,2.11,2.89,2.38,4.71,2.03,1.02-.2,1.85-1.43,3.05-2.43,3.26,1.36,4.63,4.44,4.55,8.63-.06,3.01,1.14,6.04,1.79,9.06.39,1.8.79,3.6,1.19,5.4-.23.18-.45.37-.68.55Zm88.57,43.33c3.72-.27,4.74-2.31,3.09-5.19-1.9-3.32-3.63-6.71-7.92-8.17-.34,1.53-.62,2.81-.78,3.55,1.75.88,3.78,1.24,4.17,2.24.89,2.3.99,4.91,1.44,7.58Z"/>
      <path class="cls-2" d="m138.05,297.78c2,1.86,3.35,3.11,5.08,4.71.18-1.38.29-2.28.47-3.71,1.04.72,1.88,1.24,2.66,1.85,1.42,1.12,2.93,2.17,4.16,3.47.87.93,1.46,2.17,2,3.36,2.04,4.47,3.51,9.28,6.11,13.39,3.83,6.05,8.15,11.85,12.79,17.29,4.24,4.97,9.2,9.33,13.82,13.97.18.18.24.48.77,1.58-7.38-2.68-10.65,3.06-15.26,6.53-5.07-5.77-10.16-11.26-14.88-17.06-3.11-3.83-5.8-8.02-8.38-12.24-.41-.66.44-2.71,1.29-3.41,2.47-2.05,5.24-3.74,8.4-5.93h-4.68c-.62-2.45-1.51-4.63-1.65-6.86-.25-3.79-3.51-3.84-5.54-3.91-2.59-.09-3.53-1.3-4.35-3.11-1.03-2.3-1.93-4.67-2.78-7.04-.22-.61-.03-1.36-.03-2.89Z"/>
      <path class="cls-2" d="m409.94,183.64c1.18-.55,2.36-1.1,3.54-1.64,1.12-.52,2.24-1.03,3.24-1.48,1.06,1.8,1.96,3.34,2.87,4.88.22-.11.44-.21.66-.32-.21-.99-.41-1.97-.71-3.37,1.23.18,2.24.38,3.26.48,1.42.14,2.86.13,4.26.33.7.1,1.36.52,2.03.79-.31.74-.41,1.77-.97,2.17-2.36,1.67-4.36,3.31-7.73,3.93-3.74.69-6.72.01-10.02-.67-.77-.16-1.58-.13-2.5-.2.39,3.71,3.22,4.6,5.43,5.65,2.14,1.02,3.39,2.02,3.43,4.54.03,2.05,2.04,3.09,3.1,1.72,2.09-2.71,4.63-1.79,6.11-.31,2.85,2.86,5.63,1.74,8.61.99.47-.12.99-.02,1.75-.02,1.9,6.66,3.81,13.37,5.75,20.18-1.14-.13-2-.23-2.85-.33.6.88,1.24,1.74,1.78,2.66.76,1.3,1.71,2.57,2.11,3.98.62,2.15,1.02,4.4,1.16,6.62.09,1.51.28,3.75-2.65,2.42-.74-.34-1.76-.04-2.65-.07-1.12-.04-2.28.29-1.96-1.8.1-.66-2.02-1.77-3.22-2.5-2.12-1.29-4.32-2.45-7.18-4.06,4.07-1.27,3.5-3.32,2.36-5.66-2.68-5.49-4.83-11.33-9.53-15.51-2.34-2.08-5.07-3.71-7.61-5.56-.54-.39-1.05-.84-1.62-1.29.88-.48,1.63-.88,3.03-1.65-3.1-2.85-6.05-5.52-8.92-8.27-.66-.64-1.61-1.89-1.38-2.33.41-.82,1.52-1.45,2.47-1.79,1.7-.62,4.06.06,4.63-2.58,0,0-.08.07-.08.07Z"/>
      <path class="cls-2" d="m139.61,291.36c1.9-4.78,1.79-9.65.73-14.8.82-.55,1.79-1.19,3.09-2.06.82,4.31,1.57,8.47,2.41,12.62.37,1.82,1.1,3.58,1.33,5.42.26,2.01-.18,4.12-2.56,4.48-3.66.56-7.57,1.5-10.35-2.33,2.84-3.91,7.38,1.26,10.86-2.6-2.08-.32-3.78-.58-5.48-.84l-.04.12Z"/>
      <path class="cls-2" d="m193.84,360.61c-2.88,3.42-5.75,6.84-8.83,10.51-1.26-.9-2.92-2.08-5.17-3.68.85-.73,1.64-1.26,2.24-1.96,1.68-1.98,3.68-3.83,4.79-6.1.89-1.84,1.95-2.75,3.67-2.36,1.71.39,3.84.93,3.22,3.62l.08-.03Z"/>
      <path class="cls-2" d="m391.39,336.51c-2.54-.35-4.51-.63-6.43-.9,2.93-5.4,5.88-10.85,8.83-16.29.3.13.59.26.89.39.31,1.5.77,3,.88,4.52.12,1.78.63,3.59-2.46,4-2.63.36-1.55,3.22-1.7,5.08-.09,1.14-.02,2.28-.02,3.2Z"/>
      <path class="cls-2" d="m506.33,261.19c1.75.97,3.59,1.99,5.65,3.13-6.91,1.79-12.14.47-15.71-9.56,4.08-.76,4.37,4.98,8.02,4.69.22-1.33.26-2.69.74-3.87.14-.35,1.52-.19,2.58-.28-.46,2.13-.83,3.83-1.27,5.89Z"/>
      <path class="cls-2" d="m132.32,390.37c2.01.37,4.09.51,6.02,1.14,4.23,1.39,4.5,2.37,2.2,5.63,1.7,1.51,3.39,3.01,5.07,4.5l-.86,1c-4.28-3.77-8.56-7.54-12.84-11.31.14-.32.27-.64.41-.96Z"/>
      <path class="cls-2" d="m510.25,255.67c2.1.23,4.21.46,6.41.69-1.43,4.14-2.96,5.07-7.25,4.61.27-1.69.53-3.37.84-5.3Z"/>
      <path class="cls-2" d="m180.02,365.1c-3.83,1.52-4.87-2.64-8.04-3.61,1.72-.91,3.04-1.61,4.34-2.3,1.29,2.06,2.44,3.9,3.7,5.91Z"/>
      <path class="cls-2" d="m193.77,360.64c1.4.21,2.8.42,4.45.66-1.32,2.32-2.34,4.11-3.4,5.98-2.3-.43-2.39-1.69-1.55-3.58.42-.93.4-2.06.58-3.1,0,0-.08.03-.08.03Z"/>
      <path class="cls-2" d="m370.22,311.63c2.01,2.16,5.21,2.93,4.88,6.44-2.5.47-2.31.39-3.13-1.77-.33-.89-1.69-1.39-2.72-2.16.23-.6.52-1.36.97-2.5Z"/>
      <path class="cls-2" d="m523.68,259.07c-.88,1.23-1.53,2.81-2.72,3.55-.81.51-2.35-.14-3.57-.27,0-.26,0-.52,0-.78,1.66-1.27,3.32-2.53,4.98-3.8.44.43.87.86,1.31,1.29Z"/>
      <path class="cls-2" d="m161.03,409.44c-.43,1.59-.76,2.77-1.08,3.94-.29.17-.58.34-.87.51-1.05-1.28-2.1-2.56-3.64-4.45h5.59Z"/>
      <path class="cls-2" d="m377.33,309.49c-1.22-2.47-2.45-4.93-3.67-7.4.26-.13.53-.26.79-.38,2.49,1.84,3.86,4.24,3.64,7.44-.25.11-.5.22-.76.34Z"/>
      <path class="cls-2" d="m150.3,407.41c-.49-.53-1.06-1.15-1.65-1.8,3.08-2.17,3.71-2.25,6.44-.63-1.62.82-2.99,1.51-4.79,2.42Z"/>
      <path class="cls-2" d="m116.96,367.43c-1.37.4-2.72.98-4.11,1.08-.39.03-.88-1.37-1.32-2.12,1.64-.21,3.27-.42,4.91-.63l.52,1.67Z"/>
      <path class="cls-2" d="m227.87,80.29c2.2-.35,4.16-.66,6.31-1-1.42,2.89-2.68,3.07-6.31,1Z"/>
      <path class="cls-2" d="m139.65,291.24l.14.12s-.18-.02-.18-.01c0,0,.04-.11.04-.11Z"/>
      <path class="cls-2" d="m195.19,133.87c-2.65,1.56-5.3,3.11-8.24,4.84v-7.18c2.81.46,5.52.89,8.22,1.33,0,.34.01.67.02,1.01Z"/>
    </g>
  </g>
</svg>