<?xml version="1.0" encoding="UTF-8"?>
<svg id="Capa_2" data-name="Capa 2" xmlns="http://www.w3.org/2000/svg" xmlns:xlink="http://www.w3.org/1999/xlink" viewBox="0 0 510.54 472.22">
  <defs>
    <style>
      .cls-1 {
        fill: url(#Degradado_sin_nombre_31);
      }

      .cls-2 {
        fill: url(#Degradado_sin_nombre_26);
      }
    </style>
    <linearGradient id="Degradado_sin_nombre_31" data-name="Degradado sin nombre 31" x1="277.56" y1="306.53" x2="277.56" y2="524.47" gradientUnits="userSpaceOnUse">
      <stop offset="0" stop-color="#572252"/>
      <stop offset=".77" stop-color="#8c3c86"/>
    </linearGradient>
    <linearGradient id="Degradado_sin_nombre_26" data-name="Degradado sin nombre 26" x1="6.56" y1="412.78" x2="630.99" y2="-196.32" gradientUnits="userSpaceOnUse">
      <stop offset="0" stop-color="#572252"/>
      <stop offset=".7" stop-color="#8c3c86"/>
    </linearGradient>
  </defs>
  <g id="Capa_1-2" data-name="Capa 1">
    <g>
      <path class="cls-1" d="m170.88,457.32l33.72-37.8c9.31-10.44,9.31-27.53,0-37.97l-33.72-37.8c-5.14-5.77-1.05-14.9,6.68-14.9h146.64c5.36,0,10.52,2.46,14.48,6.9l40.86,45.81c9.31,10.44,9.31,27.53,0,37.97l-40.36,45.25c-4.28,4.8-9.86,7.46-15.65,7.46h-145.97c-7.73,0-11.82-9.14-6.68-14.9Z"/>
      <path class="cls-2" d="m173.49,340.36L501.03,49.98c19.31-17.12,7.25-48.92-18.6-49.08l-145.38-.9L9.51,290.39c-19.31,17.12-7.25,48.92,18.6,49.08l145.38.9Z"/>
    </g>
  </g>
</svg>